<?xml version="1.0" encoding="UTF-8"?>
<svg width="700pt" height="700pt" version="1.1" viewBox="0 0 700 700" xmlns="http://www.w3.org/2000/svg">
 <g fill-rule="evenodd">
  <path d="m350 223.86c-35.422 0-64.168 28.746-64.168 64.168s28.746 64.168 64.168 64.168 64.168-28.746 64.168-64.168-28.746-64.168-64.168-64.168zm0 35c16.102 0 29.168 13.066 29.168 29.168 0 16.102-13.066 29.168-29.168 29.168s-29.168-13.066-29.168-29.168c0-16.102 13.066-29.168 29.168-29.168z"/>
  <path d="m466.67 105.72c-35.422 0-64.168 28.746-64.168 64.168s28.746 64.168 64.168 64.168 64.168-28.746 64.168-64.168-28.746-64.168-64.168-64.168zm0 35c16.102 0 29.168 13.066 29.168 29.168s-13.066 29.168-29.168 29.168c-16.102 0-29.168-13.066-29.168-29.168s13.066-29.168 29.168-29.168z"/>
  <path d="m233.33 105.72c-35.422 0-64.168 28.746-64.168 64.168s28.746 64.168 64.168 64.168 64.168-28.746 64.168-64.168-28.746-64.168-64.168-64.168zm0 35c16.102 0 29.168 13.066 29.168 29.168s-13.066 29.168-29.168 29.168c-16.102 0-29.168-13.066-29.168-29.168s13.066-29.168 29.168-29.168z"/>
  <path d="m247.08 447.6 15.727-19.902c14.375-18.223 36.309-28.84 59.5-28.84h55.395c23.191 0 45.125 10.617 59.5 28.84l15.727 19.902c5.9961 7.582 17.012 8.8906 24.594 2.8945 7.582-5.9727 8.8672-16.988 2.8945-24.57l-15.727-19.926c-21.023-26.625-53.082-42.141-86.988-42.141h-55.395c-33.902 0-65.965 15.516-86.988 42.141l-15.727 19.926c-5.9727 7.582-4.6914 18.598 2.8945 24.57 7.582 5.9961 18.598 4.6914 24.594-2.8945z"/>
  <path d="m466.67 280.72h27.695c23.191 0 45.125 10.641 59.5 28.84l15.727 19.926c5.9961 7.582 17.012 8.8672 24.594 2.8945 7.582-5.9961 8.8672-17.012 2.8945-24.57l-15.727-19.926c-21.023-26.625-53.082-42.164-86.988-42.164h-27.695c-9.6602 0-17.5 7.8398-17.5 17.5s7.8398 17.5 17.5 17.5z"/>
  <path d="m233.33 245.72h-27.695c-33.902 0-65.965 15.539-86.988 42.164l-15.727 19.926c-5.9727 7.5586-4.6914 18.574 2.8945 24.57 7.582 5.9727 18.598 4.6914 24.594-2.8945l15.727-19.926c14.375-18.199 36.309-28.84 59.5-28.84h27.695c9.6602 0 17.5-7.8398 17.5-17.5s-7.8398-17.5-17.5-17.5z"/>
 </g>
</svg>
